# xmcd CD database file
#
# Track frame offsets:
#	150
#	18019
#	33930
#
# Disc length: 699 seconds
#
# Revision: 1
# Processed by: cddbd v1.5PL3 Copyright (c) Steve Scherf et al.
# Submitted via: CDex 1.51
#
DISCID=1302b903
DTITLE=Kiss - Spin the Bottle The Ultimate Tribute to Kiss
DYEAR=2004
DGENRE=Metal
TTITLE0=Shout it Out Loud
TTITLE1=Calling Dr. Love
TTITLE2=Parasite
EXTD=YEAR: 2004
EXTT0=
EXTT1=
EXTT2=
PLAYORDER=
